<svg width="32" height="33" viewBox="0 0 32 33" fill="none" xmlns="http://www.w3.org/2000/svg">
<path d="M30.2367 32.5943C31.2177 32.5943 32 31.8069 32 30.8473V2.63644C32 1.6645 31.2053 0.889404 30.2367 0.889404H1.76329C0.794722 0.889404 0 1.6768 0 2.63644V30.8473C0 31.8192 0.794722 32.5943 1.76329 32.5943H30.2367Z" fill="#157DC3"/>
<path d="M22.0785 32.5946V20.3162H26.2384L26.8592 15.5303H22.0785V12.4791C22.0785 11.0889 22.4634 10.1538 24.4751 10.1538H27.0331V5.86008C26.5861 5.79857 25.0711 5.67554 23.3078 5.67554C19.6198 5.67554 17.0991 7.90239 17.0991 11.9993V15.5303H12.9268V20.3162H17.0991V32.5946H22.0785Z" fill="white"/>
</svg>
