<svg width="32" height="33" viewBox="0 0 32 33" fill="none" xmlns="http://www.w3.org/2000/svg">
<path d="M5.52195 1.72086C4.46829 2.12692 3.57724 2.66834 2.68618 3.55136C1.79512 4.42793 1.24878 5.3174 0.839024 6.35511C0.442276 7.36059 0.17561 8.51431 0.097561 10.203C0.0195122 11.8917 0 12.4331 0 16.7386C0 21.0442 0.0195122 21.5856 0.097561 23.2743C0.17561 24.963 0.44878 26.1167 0.839024 27.1222C1.24878 28.1663 1.79512 29.0494 2.68618 29.9324C3.57724 30.8154 4.46829 31.3568 5.52195 31.7629C6.53659 32.156 7.70081 32.4203 9.40488 32.4977C11.1089 32.575 11.6553 32.5943 16 32.5943C20.3447 32.5943 20.8911 32.575 22.5951 32.4977C24.2992 32.4203 25.4634 32.1496 26.478 31.7629C27.5317 31.3568 28.4228 30.8154 29.3138 29.9324C30.2049 29.0494 30.7512 28.1663 31.161 27.1222C31.5577 26.1167 31.8244 24.963 31.9024 23.2743C31.9805 21.5856 32 21.0442 32 16.7386C32 12.4331 31.9805 11.8917 31.9024 10.203C31.8244 8.51431 31.5512 7.36059 31.161 6.35511C30.7512 5.3174 30.2049 4.42793 29.3203 3.55136C28.4293 2.66834 27.5382 2.12692 26.4846 1.72086C25.4699 1.32769 24.3057 1.06343 22.6016 0.986085C20.8976 0.90874 20.3512 0.889404 16.0065 0.889404C11.6618 0.889404 11.1154 0.90874 9.41138 0.986085C7.70081 1.05698 6.53659 1.32769 5.52195 1.72086ZM22.465 3.83495C24.026 3.90585 24.8715 4.16367 25.4374 4.38281C26.1854 4.67286 26.7187 5.01446 27.278 5.56877C27.8374 6.12307 28.1821 6.65159 28.4748 7.39282C28.6959 7.95356 28.9561 8.79147 29.0276 10.3384C29.1057 12.0077 29.1187 12.5105 29.1187 16.7451C29.1187 20.9797 29.0992 21.4825 29.0276 23.1518C28.9561 24.6987 28.6959 25.5366 28.4748 26.0974C28.1821 26.8386 27.8374 27.3671 27.278 27.9214C26.7187 28.4757 26.1854 28.8173 25.4374 29.1074C24.8715 29.3265 24.026 29.5843 22.465 29.6552C20.7805 29.7326 20.2732 29.7455 16 29.7455C11.7268 29.7455 11.2195 29.7261 9.53496 29.6552C7.97398 29.5843 7.12846 29.3265 6.5626 29.1074C5.81463 28.8173 5.2813 28.4757 4.72195 27.9214C4.1626 27.3671 3.81789 26.8386 3.5252 26.0974C3.30406 25.5366 3.0439 24.6987 2.97236 23.1518C2.89431 21.4825 2.8813 20.9797 2.8813 16.7451C2.8813 12.5105 2.90081 12.0077 2.97236 10.3384C3.0439 8.79147 3.30406 7.95356 3.5252 7.39282C3.81789 6.65159 4.1626 6.12307 4.72195 5.56877C5.2813 5.01446 5.81463 4.67286 6.5626 4.38281C7.12846 4.16367 7.97398 3.90585 9.53496 3.83495C11.2195 3.75761 11.7268 3.74472 16 3.74472C20.2732 3.74472 20.7805 3.75761 22.465 3.83495Z" fill="url(#paint0_radial_2_136)"/>
<path d="M7.7854 16.745C7.7854 21.2439 11.4667 24.8856 16 24.8856C20.5333 24.8856 24.2146 21.2375 24.2146 16.745C24.2146 12.2526 20.5398 8.60449 16 8.60449C11.4602 8.60449 7.7854 12.2461 7.7854 16.745ZM21.3333 16.745C21.3333 19.6648 18.9463 22.0303 16 22.0303C13.0537 22.0303 10.6667 19.6648 10.6667 16.745C10.6667 13.8253 13.0537 11.4598 16 11.4598C18.9463 11.4598 21.3333 13.8253 21.3333 16.745Z" fill="url(#paint1_radial_2_136)"/>
<path d="M24.5464 10.1836C25.6061 10.1836 26.4651 9.33236 26.4651 8.28225C26.4651 7.23214 25.6061 6.38086 24.5464 6.38086C23.4867 6.38086 22.6277 7.23214 22.6277 8.28225C22.6277 9.33236 23.4867 10.1836 24.5464 10.1836Z" fill="#654C9F"/>
<defs>
<radialGradient id="paint0_radial_2_136" cx="0" cy="0" r="1" gradientUnits="userSpaceOnUse" gradientTransform="translate(0.581808 29.6917) rotate(-2.97104) scale(46.2631 38.9705)">
<stop stop-color="#FED576"/>
<stop offset="0.2634" stop-color="#F47133"/>
<stop offset="0.6091" stop-color="#BC3081"/>
<stop offset="1" stop-color="#4C63D2"/>
</radialGradient>
<radialGradient id="paint1_radial_2_136" cx="0" cy="0" r="1" gradientUnits="userSpaceOnUse" gradientTransform="translate(8.08305 23.393) rotate(-2.97105) scale(23.7566 20.0119)">
<stop stop-color="#FED576"/>
<stop offset="0.2634" stop-color="#F47133"/>
<stop offset="0.6091" stop-color="#BC3081"/>
<stop offset="1" stop-color="#4C63D2"/>
</radialGradient>
</defs>
</svg>
