<svg width="48" height="33" viewBox="0 0 48 33" fill="none" xmlns="http://www.w3.org/2000/svg">
<path d="M46.7549 1.29809C46.8299 0.654608 45.6342 1.01666 45.2133 1.07903C44.5421 1.18095 43.4659 1.15661 43.1343 1.77728C41.8302 4.2082 36.1546 15.1458 32.4862 22.002C32.0175 22.8782 30.6257 22.4797 30.7405 21.5015C31.5998 14.1753 33.1606 1.79705 33.1606 1.29809C33.1606 0.625705 32.1705 0.971024 31.756 1.03339C31.0896 1.1338 29.878 1.1125 29.6006 1.75446C28.4718 4.36945 26.0979 9.83371 22.176 16.6655C21.964 17.0352 21.5096 17.2101 21.0871 17.0869C19.8181 16.7157 16.832 16.0312 12.0269 16.0312C-3.89191 16.0312 -2.44112 32.5943 7.29032 32.5943C14.7834 32.5943 22.3387 20.2359 26.3451 12.4746C26.8154 11.5649 28.2598 12.006 28.0892 13.007C27.0609 19.0721 25.736 27.5743 25.7647 30.9818C25.7711 31.7896 26.4551 32.4437 27.3016 32.4437C27.8803 32.4437 28.408 32.1349 28.6711 31.6421C30.4184 28.3684 36.9693 16.4267 40.338 10.2825C40.7971 9.44427 42.1299 9.78655 42.0837 10.7328C41.7314 18.0286 41.454 32.4437 44.6967 32.4437C45.5194 32.4437 47.407 31.8185 47.9506 30.6913C48.2249 30.1208 47.2986 30.3231 46.6035 29.2172C44.1148 25.2605 46.6178 2.46943 46.7549 1.29809ZM7.71917 30.1543C-0.478573 30.1543 -1.65834 20.426 12.0508 20.426C15.013 20.426 16.9133 20.7653 18.0054 21.0604C18.6288 21.2292 18.8791 21.9412 18.4933 22.4371C16.2629 25.3122 11.9679 30.1543 7.71917 30.1543Z" fill="#448844"/>
</svg>
