<svg width="245" height="244" viewBox="0 0 245 244" fill="none" xmlns="http://www.w3.org/2000/svg">
<mask id="path-1-outside-1_2_14447" maskUnits="userSpaceOnUse" x="-1" y="-1.00024" width="246" height="245" fill="black">
<rect fill="white" x="-1" y="-1.00024" width="246" height="245"/>
<path fill-rule="evenodd" clip-rule="evenodd" d="M46.4413 115.88C48.3226 115.235 48.4089 112.371 46.5608 111.636C24.4155 102.831 7.05315 87.6548 7.05315 61.829C7.05315 48.3828 22.4568 31.4842 38.9281 32.2544C39.992 32.3042 40.9672 31.5995 41.2305 30.5674C43.6437 21.107 52.7244 4.05459 73.6585 2.08237C88.5521 0.679232 115.83 17.1248 125.12 53.3344C125.662 55.4483 129.161 55.6094 129.84 53.5356C138.154 28.1697 153.681 7.04649 182.167 7.04649C195.614 7.04649 212.513 22.4502 211.744 38.9215C211.694 39.9854 212.399 40.9605 213.431 41.2238C222.892 43.637 239.945 52.7176 241.918 73.6519C243.323 88.5462 226.877 115.827 190.664 125.115C188.55 125.657 188.389 129.155 190.463 129.835C215.826 138.149 236.946 153.677 236.946 182.16C236.946 195.607 221.543 212.506 205.071 211.737C204.007 211.687 203.032 212.392 202.769 213.424C200.356 222.885 191.275 239.938 170.341 241.911C155.079 243.35 126.812 226.047 118.223 187.939C117.739 185.788 114.135 185.54 113.409 187.622C104.924 211.988 89.4828 231.888 61.8333 231.888C48.387 231.888 31.4876 216.485 32.2568 200.013C32.3065 198.95 31.6019 197.974 30.5698 197.711C21.1093 195.298 4.05619 186.217 2.08272 165.283C0.771073 151.369 15.0362 126.647 46.4413 115.88Z"/>
</mask>
<path d="M73.6585 2.08237L73.4709 0.0911855L73.6585 2.08237ZM241.918 73.6519L243.91 73.4642L241.918 73.6519ZM170.341 241.911L170.153 239.92L170.341 241.911ZM2.08272 165.283L4.07389 165.095L2.08272 165.283ZM32.2568 200.013L30.259 199.92L32.2568 200.013ZM30.5698 197.711L31.0642 195.773L30.5698 197.711ZM205.071 211.737L204.978 213.735L205.071 211.737ZM202.769 213.424L200.831 212.93L202.769 213.424ZM190.664 125.115L190.167 123.178L190.664 125.115ZM190.463 129.835L191.086 127.935L190.463 129.835ZM125.12 53.3344L123.183 53.8314L125.12 53.3344ZM129.84 53.5356L127.94 52.9128L129.84 53.5356ZM41.2305 30.5674L39.2925 30.0731L41.2305 30.5674ZM211.744 38.9215L209.746 38.8282L211.744 38.9215ZM213.431 41.2238L212.937 43.1617L213.431 41.2238ZM118.223 187.939L116.272 188.379L118.223 187.939ZM113.409 187.622L111.521 186.965L113.409 187.622ZM46.5608 111.636L45.8218 113.495L46.5608 111.636ZM46.4413 115.88L47.0899 117.772L46.4413 115.88ZM5.05315 61.829C5.05315 88.833 23.315 104.546 45.8218 113.495L47.2997 109.778C25.5159 101.116 9.05315 86.4767 9.05315 61.829H5.05315ZM39.0215 30.2566C30.0761 29.8383 21.5942 34.2073 15.4119 40.2843C9.25126 46.3399 5.05315 54.4093 5.05315 61.829H9.05315C9.05315 55.8025 12.5568 48.6995 18.2159 43.1369C23.8532 37.5956 31.3087 33.9003 38.8346 34.2523L39.0215 30.2566ZM73.4709 0.0911855C51.3291 2.17719 41.8059 20.2201 39.2925 30.0731L43.1684 31.0618C45.4815 21.9939 54.1196 5.932 73.8461 4.07355L73.4709 0.0911855ZM127.057 52.8374C122.312 34.3392 112.95 20.8185 102.795 12.0871C92.7087 3.41553 81.646 -0.678991 73.4709 0.0911855L73.8461 4.07355C80.5647 3.44059 90.5879 6.86728 100.187 15.1202C109.716 23.3131 118.639 36.12 123.183 53.8314L127.057 52.8374ZM182.167 5.04649C167.366 5.04649 155.863 10.5579 147.027 19.3621C138.241 28.1173 132.151 40.0633 127.94 52.9128L131.741 54.1585C135.843 41.6421 141.674 30.3435 149.851 22.1956C157.979 14.0967 168.482 9.04649 182.167 9.04649V5.04649ZM213.742 39.0148C214.16 30.0694 209.79 21.5875 203.713 15.4052C197.657 9.24461 189.587 5.04649 182.167 5.04649V9.04649C188.194 9.04649 195.297 12.5502 200.86 18.2093C206.402 23.8467 210.098 31.3023 209.746 38.8282L213.742 39.0148ZM243.91 73.4642C241.822 51.3223 223.778 41.7992 213.925 39.2858L212.937 43.1617C222.005 45.4748 238.067 54.1129 239.927 73.8396L243.91 73.4642ZM191.161 127.052C209.661 122.307 223.183 112.946 231.914 102.79C240.586 92.7031 244.68 81.6396 243.91 73.4642L239.927 73.8396C240.561 80.5585 237.134 90.5824 228.881 100.182C220.688 109.712 207.88 118.634 190.167 123.178L191.161 127.052ZM238.946 182.16C238.946 167.361 233.436 155.858 224.633 147.022C215.879 138.236 203.934 132.146 191.086 127.935L189.84 131.736C202.355 135.838 213.652 141.669 221.799 149.846C229.897 157.973 234.946 168.476 234.946 182.16H238.946ZM204.978 213.735C213.923 214.153 222.405 209.783 228.588 203.706C234.748 197.65 238.946 189.58 238.946 182.16H234.946C234.946 188.187 231.443 195.29 225.784 200.853C220.146 206.395 212.691 210.091 205.165 209.739L204.978 213.735ZM170.529 243.903C192.671 241.815 202.194 223.772 204.707 213.918L200.831 212.93C198.518 221.998 189.88 238.061 170.153 239.92L170.529 243.903ZM116.272 188.379C120.658 207.838 130.088 222.062 140.453 231.252C150.745 240.378 162.154 244.692 170.529 243.903L170.153 239.92C163.266 240.57 152.91 236.952 143.106 228.259C133.375 219.63 124.377 206.149 120.175 187.499L116.272 188.379ZM61.8333 233.888C90.7603 233.888 106.705 212.954 115.298 188.28L111.521 186.965C103.143 211.021 88.2052 229.888 61.8333 229.888V233.888ZM30.259 199.92C29.8412 208.866 34.2106 217.347 40.288 223.53C46.3439 229.69 54.4136 233.888 61.8333 233.888V229.888C55.8067 229.888 48.7035 226.385 43.1405 220.726C37.5989 215.088 33.9032 207.633 34.2547 200.107L30.259 199.92ZM0.0915474 165.471C2.17886 187.613 20.2224 197.136 30.0755 199.649L31.0642 195.773C21.9962 193.46 5.93352 184.822 4.07389 165.095L0.0915474 165.471ZM45.7927 113.988C29.7301 119.495 17.9922 128.592 10.4245 138.161C2.90591 147.668 -0.629108 157.826 0.0915474 165.471L4.07389 165.095C3.4829 158.826 6.42462 149.667 13.5619 140.642C20.6502 131.679 31.7474 123.032 47.0899 117.772L45.7927 113.988ZM34.2547 200.107C34.3475 198.118 33.0383 196.277 31.0642 195.773L30.0755 199.649C30.1178 199.66 30.1642 199.687 30.2034 199.741C30.2434 199.796 30.2618 199.86 30.259 199.92L34.2547 200.107ZM205.165 209.739C203.176 209.646 201.335 210.956 200.831 212.93L204.707 213.918C204.718 213.876 204.745 213.83 204.799 213.791C204.854 213.751 204.918 213.732 204.978 213.735L205.165 209.739ZM190.167 123.178C187.991 123.736 187.066 125.738 186.995 127.335C186.924 128.934 187.676 131.027 189.84 131.736L191.086 127.935C191.076 127.932 191.08 127.932 191.086 127.937C191.09 127.94 191.08 127.933 191.064 127.905C191.028 127.84 190.983 127.701 190.991 127.512C191 127.322 191.057 127.179 191.107 127.104C191.145 127.048 191.159 127.053 191.161 127.052L190.167 123.178ZM123.183 53.8314C123.741 56.0075 125.743 56.933 127.341 57.0034C128.939 57.0739 131.032 56.3218 131.741 54.1585L127.94 52.9128C127.937 52.9222 127.937 52.9181 127.942 52.9123C127.945 52.9086 127.938 52.9181 127.91 52.934C127.845 52.9709 127.707 53.0157 127.517 53.0073C127.328 52.999 127.184 52.9419 127.11 52.8915C127.053 52.8534 127.058 52.8394 127.057 52.8374L123.183 53.8314ZM38.8346 34.2523C40.8233 34.3452 42.6648 33.036 43.1684 31.0618L39.2925 30.0731C39.2817 30.1154 39.2543 30.1618 39.2006 30.201C39.1458 30.241 39.082 30.2594 39.0215 30.2566L38.8346 34.2523ZM209.746 38.8282C209.653 40.8168 210.962 42.6582 212.937 43.1617L213.925 39.2858C213.883 39.275 213.837 39.2477 213.797 39.1939C213.757 39.1391 213.739 39.0753 213.742 39.0148L209.746 38.8282ZM120.175 187.499C119.672 185.27 117.639 184.305 116.04 184.197C114.442 184.09 112.281 184.78 111.521 186.965L115.298 188.28C115.3 188.274 115.299 188.279 115.294 188.285C115.291 188.289 115.299 188.277 115.333 188.26C115.409 188.219 115.565 188.175 115.773 188.188C115.98 188.202 116.137 188.268 116.219 188.326C116.256 188.351 116.268 188.369 116.27 188.371C116.271 188.372 116.271 188.372 116.27 188.372C116.27 188.371 116.271 188.372 116.272 188.379L120.175 187.499ZM45.8218 113.495C45.8441 113.504 45.8475 113.507 45.8581 113.525C45.877 113.558 45.9034 113.631 45.9004 113.734C45.8974 113.837 45.8667 113.912 45.8425 113.949C45.827 113.973 45.8183 113.979 45.7927 113.988L47.0899 117.772C48.9752 117.125 49.8541 115.393 49.8987 113.85C49.9435 112.305 49.1627 110.519 47.2997 109.778L45.8218 113.495Z" fill="#448844" mask="url(#path-1-outside-1_2_14447)"/>
</svg>
